<svg xmlns="http://www.w3.org/2000/svg" viewBox="0 0 1161.01 221.89"><defs><style>.cls-1{fill:#ec524b;}.cls-2{fill:#9ad3bc;}.cls-3{fill:#1a1a1a;}</style></defs><g id="Design_1" data-name="Design 1"><path class="cls-1" d="M274.44,42.35H366.1V70.14H304.55V97.93h56.92v27.78H304.55V179H274.44Z"/><path class="cls-1" d="M382.12,55.67a16.79,16.79,0,1,1,28.65,11.86,16.79,16.79,0,0,1-28.65-11.86Zm2.31,29.52h28.95V179H384.43Z"/><path class="cls-1" d="M424.38,85.19h31.26l23.73,63.68h.39l22-63.68H530.9l-37,93.78H463.16Z"/><path class="cls-1" d="M630.27,162.76a46.06,46.06,0,0,1-17.56,13.7,52.54,52.54,0,0,1-22,4.83,59,59,0,0,1-20.35-3.48,48.93,48.93,0,0,1-16.6-9.93,46.53,46.53,0,0,1-11.09-15.54,49,49,0,0,1-4.06-20.26,49,49,0,0,1,4.06-20.26,46.49,46.49,0,0,1,11.09-15.53,49,49,0,0,1,16.6-9.94,59,59,0,0,1,20.35-3.48A46.26,46.26,0,0,1,609,86.35a37.83,37.83,0,0,1,13.89,9.94,45.16,45.16,0,0,1,8.78,15.53,62.58,62.58,0,0,1,3.09,20.26v9.07H567.56a23,23,0,0,0,7.52,13.22,21.29,21.29,0,0,0,14.28,4.92,21.76,21.76,0,0,0,12.06-3.18A32.45,32.45,0,0,0,610,147.9Zm-24.5-41.29a16.76,16.76,0,0,0-4.83-12.54A17.12,17.12,0,0,0,588,103.72a21.08,21.08,0,0,0-14.76,5.49,17.28,17.28,0,0,0-4,5.6,18.32,18.32,0,0,0-1.64,6.66Z"/><path class="cls-2" d="M705.34,112.78a20.52,20.52,0,0,0-16.79-7.91,15.73,15.73,0,0,0-7.14,1.74,6.14,6.14,0,0,0-3.48,6q0,3.48,3.57,5.11a47.15,47.15,0,0,0,9.07,2.9l11.77,2.7a44.28,44.28,0,0,1,11.77,4.54,26.2,26.2,0,0,1,9.07,8.39q3.57,5.31,3.57,14.18,0,9.08-4,15a30.45,30.45,0,0,1-10.13,9.45,43.25,43.25,0,0,1-13.9,5,82.89,82.89,0,0,1-15.24,1.45,74,74,0,0,1-19.88-2.8,37.08,37.08,0,0,1-17-9.94l17.56-19.49a29,29,0,0,0,9,7.62,24.13,24.13,0,0,0,11.48,2.61,26.72,26.72,0,0,0,9.07-1.45q4.05-1.44,4-5.3a5.87,5.87,0,0,0-3.57-5.5,38.84,38.84,0,0,0-9.07-3.09l-11.77-2.7a48.74,48.74,0,0,1-11.77-4.34,24.61,24.61,0,0,1-9.07-8.21Q649,123.41,649,114.52a28.52,28.52,0,0,1,3.38-14.28,29.64,29.64,0,0,1,8.87-9.84,38.45,38.45,0,0,1,12.64-5.69,58,58,0,0,1,14.47-1.84,67.91,67.91,0,0,1,18.72,2.71,34.76,34.76,0,0,1,16,9.64Z"/><path class="cls-2" d="M805.48,108.35H780v31.26a58.18,58.18,0,0,0,.39,7,13.92,13.92,0,0,0,1.74,5.5,8.77,8.77,0,0,0,4.14,3.57,18.38,18.38,0,0,0,7.43,1.25,50.23,50.23,0,0,0,6.08-.48,10.24,10.24,0,0,0,5.69-2.22v24.12a43.83,43.83,0,0,1-10,2.32,91.54,91.54,0,0,1-10.23.58,55.48,55.48,0,0,1-13.5-1.55,30.5,30.5,0,0,1-10.81-4.92,23,23,0,0,1-7.24-8.78,30.09,30.09,0,0,1-2.6-13.12V108.35H732.54V85.19h18.53V57.4H780V85.19h25.47Z"/><path class="cls-2" d="M879,167.2h-.38A27.28,27.28,0,0,1,865.79,178a44.26,44.26,0,0,1-16.89,3.28,43.33,43.33,0,0,1-12.64-1.84,31.8,31.8,0,0,1-10.71-5.5,26.57,26.57,0,0,1-7.33-9.06,27.74,27.74,0,0,1-2.7-12.55,28.69,28.69,0,0,1,3-13.7,26.66,26.66,0,0,1,8.1-9.26,40.3,40.3,0,0,1,11.68-5.69,84.7,84.7,0,0,1,13.6-3A128.65,128.65,0,0,1,866,119.54c4.69-.13,9-.19,13-.19a15.08,15.08,0,0,0-5.49-12.26,19.86,19.86,0,0,0-13-4.53,28.29,28.29,0,0,0-13,3,35.49,35.49,0,0,0-10.51,8.2L821.5,97.93a53,53,0,0,1,18.91-11.29,67.57,67.57,0,0,1,22.39-3.77q12.74,0,20.93,3.19a30.38,30.38,0,0,1,13.12,9.36,36,36,0,0,1,6.85,15.14,99.26,99.26,0,0,1,1.93,20.75V179H879Zm-7.14-29.33c-2.18,0-4.92.1-8.2.29a41.35,41.35,0,0,0-9.45,1.64,21,21,0,0,0-7.72,4,9.34,9.34,0,0,0-3.18,7.53,8.27,8.27,0,0,0,4.43,7.72,18.6,18.6,0,0,0,9.27,2.5,29.17,29.17,0,0,0,8.2-1.15,24.64,24.64,0,0,0,7-3.28,15.86,15.86,0,0,0,4.92-5.41,15.54,15.54,0,0,0,1.83-7.71v-6.18Z"/><path class="cls-2" d="M987.26,115.49a16.22,16.22,0,0,0-6-5.12,17.55,17.55,0,0,0-8.29-2q-11,0-17.08,6.56t-6.08,17.17q0,10.62,6.08,17.18T973,155.82a15.54,15.54,0,0,0,8.29-2.13,25.26,25.26,0,0,0,6-5l19.1,20.06a36.77,36.77,0,0,1-15.92,9.75,60,60,0,0,1-17.46,2.8,59,59,0,0,1-20.36-3.48,48.93,48.93,0,0,1-16.6-9.93,46.67,46.67,0,0,1-11.09-15.54,49.13,49.13,0,0,1-4-20.26,49.17,49.17,0,0,1,4-20.26A46.63,46.63,0,0,1,936,96.29a49,49,0,0,1,16.6-9.94A59,59,0,0,1,973,82.87a60,60,0,0,1,17.46,2.8,37,37,0,0,1,15.92,9.75Z"/><path class="cls-2" d="M1016.78,33.09h28.94v89.15l32-37h35.5L1076,127.45,1114.23,179h-36.47l-31.65-47.47h-.39V179h-28.94Z"/><circle class="cls-2" cx="39.32" cy="182.19" r="11.95"/><circle class="cls-2" cx="97.89" cy="154.09" r="11.95"/><circle class="cls-1" cx="97.58" cy="182.48" r="11.95"/><circle class="cls-1" cx="126.75" cy="183.06" r="11.95"/><circle class="cls-2" cx="156.54" cy="183.06" r="11.95"/><circle class="cls-2" cx="125.96" cy="95.24" r="11.95"/><circle class="cls-2" cx="214.8" cy="183.35" r="11.95"/><circle class="cls-1" cx="39.01" cy="152.44" r="11.95"/><circle class="cls-2" cx="68.18" cy="153.01" r="11.95"/><circle class="cls-1" cx="67.7" cy="181.29" r="11.95"/><circle class="cls-1" cx="156.86" cy="96.89" r="11.95"/><circle class="cls-1" cx="156.23" cy="153.3" r="11.95"/><circle class="cls-2" cx="125.96" cy="38.88" r="11.95"/><circle class="cls-2" cx="156.23" cy="68.4" r="11.95"/><circle class="cls-3" cx="39.32" cy="123.26" r="11.95"/><circle class="cls-3" cx="68.49" cy="123.84" r="11.95"/><circle class="cls-2" cx="97.58" cy="123.55" r="11.95"/><circle class="cls-3" cx="215.11" cy="154.09" r="11.95"/><circle class="cls-1" cx="156.54" cy="124.13" r="11.95"/><circle class="cls-2" cx="185.63" cy="123.84" r="11.95"/><circle class="cls-1" cx="96.79" cy="68.4" r="11.95"/><circle class="cls-3" cx="39.32" cy="95.24" r="11.95"/><circle class="cls-3" cx="68.49" cy="95.81" r="11.95"/><circle class="cls-3" cx="215.11" cy="96.31" r="11.95"/><circle class="cls-3" cx="185.94" cy="96.89" r="11.95"/><circle class="cls-2" cx="125.96" cy="154.09" r="11.95"/><circle class="cls-1" cx="185.94" cy="183.85" r="11.95"/><circle class="cls-2" cx="96.79" cy="95.24" r="11.95"/><circle class="cls-3" cx="39.64" cy="66.74" r="11.95"/><circle class="cls-3" cx="68.81" cy="67.32" r="11.95"/><circle class="cls-3" cx="215.11" cy="124.91" r="11.95"/><circle class="cls-1" cx="127.06" cy="67.61" r="11.95"/><circle class="cls-3" cx="215.11" cy="67.03" r="11.95"/><circle class="cls-3" cx="185.94" cy="67.32" r="11.95"/><circle class="cls-1" cx="185.94" cy="154.09" r="11.95"/><circle class="cls-3" cx="38.53" cy="39.68" r="11.95"/><circle class="cls-3" cx="67.7" cy="40.26" r="11.95"/><circle class="cls-3" cx="96.79" cy="39.97" r="11.95"/><circle class="cls-1" cx="125.96" cy="123.26" r="11.95"/><circle class="cls-3" cx="155.76" cy="40.55" r="11.95"/><circle class="cls-3" cx="184.84" cy="40.26" r="11.95"/><circle class="cls-3" cx="214.01" cy="40.84" r="11.95"/></g></svg>